<mxfile host="app.diagrams.net" modified="2024-03-26T05:25:55.827Z" agent="Mozilla/5.0 (Windows NT 10.0; Win64; x64) AppleWebKit/537.36 (KHTML, like Gecko) Chrome/120.0.0.0 YaBrowser/24.1.0.0 Safari/537.36" etag="q3kcRS9zlR0jcfoXuw_T" version="24.1.0" type="device">
  <diagram name="Page-1" id="e7e014a7-5840-1c2e-5031-d8a46d1fe8dd">
    <mxGraphModel dx="1006" dy="545" grid="1" gridSize="10" guides="1" tooltips="1" connect="1" arrows="1" fold="1" page="1" pageScale="1" pageWidth="1169" pageHeight="826" background="none" math="0" shadow="0">
      <root>
        <mxCell id="0" />
        <mxCell id="1" parent="0" />
        <mxCell id="VL4nzxfvLFWGBtEtpDHl-4" style="edgeStyle=orthogonalEdgeStyle;rounded=0;orthogonalLoop=1;jettySize=auto;html=1;exitX=0.5;exitY=1;exitDx=0;exitDy=0;" edge="1" parent="1" source="VL4nzxfvLFWGBtEtpDHl-1" target="VL4nzxfvLFWGBtEtpDHl-2">
          <mxGeometry relative="1" as="geometry" />
        </mxCell>
        <mxCell id="VL4nzxfvLFWGBtEtpDHl-1" value="client = Client()" style="shape=parallelogram;perimeter=parallelogramPerimeter;whiteSpace=wrap;html=1;fixedSize=1;" vertex="1" parent="1">
          <mxGeometry x="250" y="50" width="120" height="60" as="geometry" />
        </mxCell>
        <mxCell id="VL4nzxfvLFWGBtEtpDHl-5" style="edgeStyle=orthogonalEdgeStyle;rounded=0;orthogonalLoop=1;jettySize=auto;html=1;exitX=0.5;exitY=1;exitDx=0;exitDy=0;entryX=0.5;entryY=0;entryDx=0;entryDy=0;" edge="1" parent="1" source="VL4nzxfvLFWGBtEtpDHl-2" target="VL4nzxfvLFWGBtEtpDHl-3">
          <mxGeometry relative="1" as="geometry" />
        </mxCell>
        <mxCell id="VL4nzxfvLFWGBtEtpDHl-2" value="Зарегестрироваться" style="rounded=0;whiteSpace=wrap;html=1;" vertex="1" parent="1">
          <mxGeometry x="250" y="170" width="120" height="60" as="geometry" />
        </mxCell>
        <mxCell id="VL4nzxfvLFWGBtEtpDHl-8" style="edgeStyle=orthogonalEdgeStyle;rounded=0;orthogonalLoop=1;jettySize=auto;html=1;exitX=0;exitY=0.5;exitDx=0;exitDy=0;entryX=1;entryY=0.5;entryDx=0;entryDy=0;" edge="1" parent="1" source="VL4nzxfvLFWGBtEtpDHl-3" target="VL4nzxfvLFWGBtEtpDHl-10">
          <mxGeometry relative="1" as="geometry">
            <mxPoint x="110" y="310" as="targetPoint" />
          </mxGeometry>
        </mxCell>
        <mxCell id="VL4nzxfvLFWGBtEtpDHl-11" value="ДА" style="edgeLabel;html=1;align=center;verticalAlign=middle;resizable=0;points=[];" vertex="1" connectable="0" parent="VL4nzxfvLFWGBtEtpDHl-8">
          <mxGeometry x="-0.1897" y="-1" relative="1" as="geometry">
            <mxPoint x="1" as="offset" />
          </mxGeometry>
        </mxCell>
        <mxCell id="VL4nzxfvLFWGBtEtpDHl-12" style="edgeStyle=orthogonalEdgeStyle;rounded=0;orthogonalLoop=1;jettySize=auto;html=1;exitX=0.5;exitY=1;exitDx=0;exitDy=0;entryX=0.5;entryY=0;entryDx=0;entryDy=0;" edge="1" parent="1" source="VL4nzxfvLFWGBtEtpDHl-3" target="VL4nzxfvLFWGBtEtpDHl-14">
          <mxGeometry relative="1" as="geometry">
            <mxPoint x="510" y="370" as="targetPoint" />
          </mxGeometry>
        </mxCell>
        <mxCell id="VL4nzxfvLFWGBtEtpDHl-13" value="НЕТ" style="edgeLabel;html=1;align=center;verticalAlign=middle;resizable=0;points=[];" vertex="1" connectable="0" parent="VL4nzxfvLFWGBtEtpDHl-12">
          <mxGeometry x="-0.0867" y="2" relative="1" as="geometry">
            <mxPoint as="offset" />
          </mxGeometry>
        </mxCell>
        <mxCell id="VL4nzxfvLFWGBtEtpDHl-3" value="client in clientRepository.clients" style="rhombus;whiteSpace=wrap;html=1;" vertex="1" parent="1">
          <mxGeometry x="210" y="270" width="200" height="80" as="geometry" />
        </mxCell>
        <mxCell id="VL4nzxfvLFWGBtEtpDHl-10" value="Не добавлять клиента в репозиторий" style="rounded=0;whiteSpace=wrap;html=1;" vertex="1" parent="1">
          <mxGeometry x="40" y="280" width="120" height="60" as="geometry" />
        </mxCell>
        <mxCell id="VL4nzxfvLFWGBtEtpDHl-14" value="Добавить клиента в репозиторий" style="rounded=0;whiteSpace=wrap;html=1;" vertex="1" parent="1">
          <mxGeometry x="250" y="400" width="120" height="60" as="geometry" />
        </mxCell>
        <mxCell id="VL4nzxfvLFWGBtEtpDHl-16" style="edgeStyle=orthogonalEdgeStyle;rounded=0;orthogonalLoop=1;jettySize=auto;html=1;exitX=0.5;exitY=1;exitDx=0;exitDy=0;entryX=0.5;entryY=0;entryDx=0;entryDy=0;" edge="1" parent="1" source="VL4nzxfvLFWGBtEtpDHl-15" target="VL4nzxfvLFWGBtEtpDHl-17">
          <mxGeometry relative="1" as="geometry">
            <mxPoint x="690.1428571428573" y="180" as="targetPoint" />
          </mxGeometry>
        </mxCell>
        <mxCell id="VL4nzxfvLFWGBtEtpDHl-15" value="order = Order()" style="shape=parallelogram;perimeter=parallelogramPerimeter;whiteSpace=wrap;html=1;fixedSize=1;" vertex="1" parent="1">
          <mxGeometry x="740" y="50" width="120" height="60" as="geometry" />
        </mxCell>
        <mxCell id="VL4nzxfvLFWGBtEtpDHl-22" style="edgeStyle=orthogonalEdgeStyle;rounded=0;orthogonalLoop=1;jettySize=auto;html=1;exitX=0.5;exitY=1;exitDx=0;exitDy=0;entryX=0.5;entryY=0;entryDx=0;entryDy=0;" edge="1" parent="1" source="VL4nzxfvLFWGBtEtpDHl-17" target="VL4nzxfvLFWGBtEtpDHl-18">
          <mxGeometry relative="1" as="geometry" />
        </mxCell>
        <mxCell id="VL4nzxfvLFWGBtEtpDHl-17" value="Оформить заказ" style="rounded=0;whiteSpace=wrap;html=1;" vertex="1" parent="1">
          <mxGeometry x="740" y="160" width="120" height="60" as="geometry" />
        </mxCell>
        <mxCell id="VL4nzxfvLFWGBtEtpDHl-20" style="edgeStyle=orthogonalEdgeStyle;rounded=0;orthogonalLoop=1;jettySize=auto;html=1;exitX=1;exitY=0.5;exitDx=0;exitDy=0;entryX=0.5;entryY=0;entryDx=0;entryDy=0;" edge="1" parent="1" source="VL4nzxfvLFWGBtEtpDHl-18" target="VL4nzxfvLFWGBtEtpDHl-21">
          <mxGeometry relative="1" as="geometry">
            <mxPoint x="950" y="289.57142857142867" as="targetPoint" />
          </mxGeometry>
        </mxCell>
        <mxCell id="VL4nzxfvLFWGBtEtpDHl-25" value="нет" style="edgeLabel;html=1;align=center;verticalAlign=middle;resizable=0;points=[];" vertex="1" connectable="0" parent="VL4nzxfvLFWGBtEtpDHl-20">
          <mxGeometry x="-0.3645" y="2" relative="1" as="geometry">
            <mxPoint x="1" as="offset" />
          </mxGeometry>
        </mxCell>
        <mxCell id="VL4nzxfvLFWGBtEtpDHl-23" style="edgeStyle=orthogonalEdgeStyle;rounded=0;orthogonalLoop=1;jettySize=auto;html=1;exitX=0.5;exitY=1;exitDx=0;exitDy=0;entryX=0.5;entryY=0;entryDx=0;entryDy=0;" edge="1" parent="1" source="VL4nzxfvLFWGBtEtpDHl-18" target="VL4nzxfvLFWGBtEtpDHl-19">
          <mxGeometry relative="1" as="geometry" />
        </mxCell>
        <mxCell id="VL4nzxfvLFWGBtEtpDHl-26" value="" style="edgeStyle=orthogonalEdgeStyle;rounded=0;orthogonalLoop=1;jettySize=auto;html=1;" edge="1" parent="1" source="VL4nzxfvLFWGBtEtpDHl-18" target="VL4nzxfvLFWGBtEtpDHl-19">
          <mxGeometry relative="1" as="geometry" />
        </mxCell>
        <mxCell id="VL4nzxfvLFWGBtEtpDHl-27" value="Да" style="edgeLabel;html=1;align=center;verticalAlign=middle;resizable=0;points=[];" vertex="1" connectable="0" parent="VL4nzxfvLFWGBtEtpDHl-26">
          <mxGeometry x="0.0839" y="1" relative="1" as="geometry">
            <mxPoint as="offset" />
          </mxGeometry>
        </mxCell>
        <mxCell id="VL4nzxfvLFWGBtEtpDHl-18" value="client.age &amp;gt;= 18" style="rhombus;whiteSpace=wrap;html=1;" vertex="1" parent="1">
          <mxGeometry x="750" y="260" width="100" height="80" as="geometry" />
        </mxCell>
        <mxCell id="VL4nzxfvLFWGBtEtpDHl-24" style="edgeStyle=orthogonalEdgeStyle;rounded=0;orthogonalLoop=1;jettySize=auto;html=1;exitX=1;exitY=0.5;exitDx=0;exitDy=0;entryX=0;entryY=0.5;entryDx=0;entryDy=0;" edge="1" parent="1" source="VL4nzxfvLFWGBtEtpDHl-19" target="VL4nzxfvLFWGBtEtpDHl-21">
          <mxGeometry relative="1" as="geometry" />
        </mxCell>
        <mxCell id="VL4nzxfvLFWGBtEtpDHl-28" value="Нет" style="edgeLabel;html=1;align=center;verticalAlign=middle;resizable=0;points=[];" vertex="1" connectable="0" parent="VL4nzxfvLFWGBtEtpDHl-24">
          <mxGeometry x="-0.0383" relative="1" as="geometry">
            <mxPoint as="offset" />
          </mxGeometry>
        </mxCell>
        <mxCell id="VL4nzxfvLFWGBtEtpDHl-31" style="edgeStyle=orthogonalEdgeStyle;rounded=0;orthogonalLoop=1;jettySize=auto;html=1;exitX=0.5;exitY=1;exitDx=0;exitDy=0;entryX=0.5;entryY=0;entryDx=0;entryDy=0;" edge="1" parent="1" source="VL4nzxfvLFWGBtEtpDHl-19" target="VL4nzxfvLFWGBtEtpDHl-29">
          <mxGeometry relative="1" as="geometry" />
        </mxCell>
        <mxCell id="VL4nzxfvLFWGBtEtpDHl-35" value="Да" style="edgeLabel;html=1;align=center;verticalAlign=middle;resizable=0;points=[];" vertex="1" connectable="0" parent="VL4nzxfvLFWGBtEtpDHl-31">
          <mxGeometry x="0.6142" y="-1" relative="1" as="geometry">
            <mxPoint x="1" y="-13" as="offset" />
          </mxGeometry>
        </mxCell>
        <mxCell id="VL4nzxfvLFWGBtEtpDHl-19" value="product in&amp;nbsp;&lt;div&gt;productRepository&lt;/div&gt;" style="rhombus;whiteSpace=wrap;html=1;" vertex="1" parent="1">
          <mxGeometry x="720" y="373" width="160" height="80" as="geometry" />
        </mxCell>
        <mxCell id="VL4nzxfvLFWGBtEtpDHl-21" value="Отказать в оформлении" style="rounded=0;whiteSpace=wrap;html=1;" vertex="1" parent="1">
          <mxGeometry x="1000" y="320" width="120" height="60" as="geometry" />
        </mxCell>
        <mxCell id="VL4nzxfvLFWGBtEtpDHl-32" style="edgeStyle=orthogonalEdgeStyle;rounded=0;orthogonalLoop=1;jettySize=auto;html=1;exitX=0.5;exitY=1;exitDx=0;exitDy=0;entryX=0.5;entryY=0;entryDx=0;entryDy=0;" edge="1" parent="1" source="VL4nzxfvLFWGBtEtpDHl-29" target="VL4nzxfvLFWGBtEtpDHl-30">
          <mxGeometry relative="1" as="geometry" />
        </mxCell>
        <mxCell id="VL4nzxfvLFWGBtEtpDHl-36" value="Да" style="edgeLabel;html=1;align=center;verticalAlign=middle;resizable=0;points=[];" vertex="1" connectable="0" parent="VL4nzxfvLFWGBtEtpDHl-32">
          <mxGeometry x="-0.0165" y="1" relative="1" as="geometry">
            <mxPoint as="offset" />
          </mxGeometry>
        </mxCell>
        <mxCell id="VL4nzxfvLFWGBtEtpDHl-33" style="edgeStyle=orthogonalEdgeStyle;rounded=0;orthogonalLoop=1;jettySize=auto;html=1;exitX=1;exitY=0.5;exitDx=0;exitDy=0;entryX=0.5;entryY=1;entryDx=0;entryDy=0;" edge="1" parent="1" source="VL4nzxfvLFWGBtEtpDHl-29" target="VL4nzxfvLFWGBtEtpDHl-21">
          <mxGeometry relative="1" as="geometry" />
        </mxCell>
        <mxCell id="VL4nzxfvLFWGBtEtpDHl-39" value="Нет" style="edgeLabel;html=1;align=center;verticalAlign=middle;resizable=0;points=[];" vertex="1" connectable="0" parent="VL4nzxfvLFWGBtEtpDHl-33">
          <mxGeometry x="-0.5826" y="1" relative="1" as="geometry">
            <mxPoint as="offset" />
          </mxGeometry>
        </mxCell>
        <mxCell id="VL4nzxfvLFWGBtEtpDHl-29" value="client in&amp;nbsp;&lt;div&gt;clientRepository&lt;/div&gt;" style="rhombus;whiteSpace=wrap;html=1;" vertex="1" parent="1">
          <mxGeometry x="720" y="490" width="160" height="80" as="geometry" />
        </mxCell>
        <mxCell id="VL4nzxfvLFWGBtEtpDHl-34" style="edgeStyle=orthogonalEdgeStyle;rounded=0;orthogonalLoop=1;jettySize=auto;html=1;exitX=1;exitY=0.5;exitDx=0;exitDy=0;" edge="1" parent="1" source="VL4nzxfvLFWGBtEtpDHl-30">
          <mxGeometry relative="1" as="geometry">
            <mxPoint x="1059.9999999999998" y="380" as="targetPoint" />
          </mxGeometry>
        </mxCell>
        <mxCell id="VL4nzxfvLFWGBtEtpDHl-40" value="Нет" style="edgeLabel;html=1;align=center;verticalAlign=middle;resizable=0;points=[];" vertex="1" connectable="0" parent="VL4nzxfvLFWGBtEtpDHl-34">
          <mxGeometry x="-0.7009" y="-1" relative="1" as="geometry">
            <mxPoint as="offset" />
          </mxGeometry>
        </mxCell>
        <mxCell id="VL4nzxfvLFWGBtEtpDHl-38" style="edgeStyle=orthogonalEdgeStyle;rounded=0;orthogonalLoop=1;jettySize=auto;html=1;exitX=0.5;exitY=1;exitDx=0;exitDy=0;entryX=0.5;entryY=0;entryDx=0;entryDy=0;" edge="1" parent="1" source="VL4nzxfvLFWGBtEtpDHl-30" target="VL4nzxfvLFWGBtEtpDHl-37">
          <mxGeometry relative="1" as="geometry" />
        </mxCell>
        <mxCell id="VL4nzxfvLFWGBtEtpDHl-30" value="order.delivery_date &amp;gt; date.today" style="rhombus;whiteSpace=wrap;html=1;" vertex="1" parent="1">
          <mxGeometry x="720" y="620" width="160" height="80" as="geometry" />
        </mxCell>
        <mxCell id="VL4nzxfvLFWGBtEtpDHl-37" value="Добавить заказ в репозиторий" style="rounded=0;whiteSpace=wrap;html=1;" vertex="1" parent="1">
          <mxGeometry x="740" y="740" width="120" height="60" as="geometry" />
        </mxCell>
      </root>
    </mxGraphModel>
  </diagram>
</mxfile>
